# Blender v2.78 (sub 0) OBJ File: 'torso2.blend'
# www.blender.org
mtllib torso2.mtl
o Cylinder_Cylinder.006
v 0.000000 0.021544 -0.387269
v -0.000000 1.109722 -0.538755
v 0.081778 0.021544 -0.379828
v 0.113767 1.109722 -0.528403
v 0.160413 0.021544 -0.357790
v 0.223162 1.109722 -0.497745
v 0.232884 0.021544 -0.322002
v 0.323981 1.109722 -0.447959
v 0.296405 0.021544 -0.273840
v 0.412349 1.109722 -0.380958
v 0.348536 0.021544 -0.215155
v 0.484872 1.109722 -0.299316
v 0.387272 0.021544 -0.148201
v 0.538760 1.109722 -0.206173
v 0.411126 0.021544 -0.075552
v 0.571945 1.109722 -0.105106
v 0.419181 0.021544 -0.000000
v 0.583150 1.109722 0.000000
v 0.411126 0.021544 0.075552
v 0.571945 1.109722 0.105106
v 0.387272 0.021544 0.148201
v 0.538760 1.109722 0.206173
v 0.348536 0.021544 0.215155
v 0.484872 1.109722 0.299317
v 0.296405 0.021544 0.273840
v 0.412349 1.109722 0.380958
v 0.232884 0.021544 0.322002
v 0.323981 1.109722 0.447959
v 0.160413 0.021544 0.357790
v 0.223162 1.109722 0.497745
v 0.081778 0.021544 0.379828
v 0.113767 1.109722 0.528404
v -0.000000 0.021544 0.387269
v -0.000000 1.109722 0.538756
v -0.081778 0.021544 0.379828
v -0.113767 1.109722 0.528404
v -0.160414 0.021544 0.357790
v -0.223162 1.109722 0.497745
v -0.232884 0.021544 0.322002
v -0.323981 1.109722 0.447959
v -0.296406 0.021544 0.273840
v -0.412350 1.109722 0.380958
v -0.348536 0.021544 0.215155
v -0.484872 1.109722 0.299316
v -0.387272 0.021544 0.148201
v -0.538761 1.109722 0.206172
v -0.411126 0.021544 0.075552
v -0.571945 1.109722 0.105106
v -0.419181 0.021544 -0.000000
v -0.583150 1.109722 -0.000000
v -0.411126 0.021544 -0.075553
v -0.571945 1.109722 -0.105107
v -0.387272 0.021544 -0.148202
v -0.538760 1.109722 -0.206173
v -0.348536 0.021544 -0.215155
v -0.484871 1.109722 -0.299317
v -0.296405 0.021544 -0.273841
v -0.412349 1.109722 -0.380958
v -0.232884 0.021544 -0.322003
v -0.323980 1.109722 -0.447959
v -0.160413 0.021544 -0.357790
v -0.223161 1.109722 -0.497745
v -0.081777 0.021544 -0.379828
v -0.113766 1.109722 -0.528404
v 0.000000 0.481191 -0.308482
v 0.065141 0.481191 -0.302554
v 0.127779 0.481191 -0.285000
v 0.185506 0.481191 -0.256493
v 0.236104 0.481191 -0.218130
v 0.277629 0.481191 -0.171383
v 0.308485 0.481191 -0.118051
v 0.327485 0.481191 -0.060182
v 0.333901 0.481191 -0.000000
v 0.327485 0.481191 0.060182
v 0.308485 0.481191 0.118051
v 0.277629 0.481191 0.171383
v 0.236104 0.481191 0.218130
v 0.185506 0.481191 0.256493
v 0.127778 0.481191 0.285000
v 0.065141 0.481191 0.302554
v -0.000000 0.481191 0.308482
v -0.065141 0.481191 0.302554
v -0.127779 0.481191 0.285000
v -0.185506 0.481191 0.256493
v -0.236104 0.481191 0.218129
v -0.277629 0.481191 0.171383
v -0.308485 0.481191 0.118051
v -0.327485 0.481191 0.060182
v -0.333901 0.481191 -0.000000
v -0.327485 0.481191 -0.060182
v -0.308484 0.481191 -0.118051
v -0.277629 0.481191 -0.171384
v -0.236104 0.481191 -0.218130
v -0.185505 0.481191 -0.256493
v -0.127778 0.481191 -0.285000
v -0.065140 0.481191 -0.302554
vt 0.9138 0.5169
vt 0.9138 0.6851
vt 0.8809 0.6851
vt 0.8809 0.5169
vt 0.9549 0.5169
vt 0.9549 0.6851
vt 0.9219 0.6851
vt 0.9219 0.5169
vt 0.8317 0.5169
vt 0.8317 0.6851
vt 0.7987 0.6851
vt 0.7987 0.5169
vt 0.8728 0.1723
vt 0.8728 0.3405
vt 0.8398 0.3405
vt 0.8398 0.1723
vt 0.6675 0.1723
vt 0.6675 0.3405
vt 0.6345 0.3405
vt 0.6345 0.1723
vt 0.4621 0.5169
vt 0.4621 0.6851
vt 0.4291 0.6851
vt 0.4291 0.5169
vt 0.6264 0.1723
vt 0.6264 0.3405
vt 0.5934 0.3405
vt 0.5934 0.1723
vt 0.4621 0.1723
vt 0.4621 0.3405
vt 0.4291 0.3405
vt 0.4291 0.1723
vt 0.7496 0.5169
vt 0.7496 0.6851
vt 0.7166 0.6851
vt 0.7166 0.5169
vt 0.7906 0.1723
vt 0.7906 0.3405
vt 0.7577 0.3405
vt 0.7577 0.1723
vt 0.8317 0.1723
vt 0.8317 0.3405
vt 0.7987 0.3405
vt 0.7987 0.1723
vt 0.6264 0.5169
vt 0.6264 0.6851
vt 0.5934 0.6851
vt 0.5934 0.5169
vt 0.6675 0.5169
vt 0.6675 0.6851
vt 0.6345 0.6851
vt 0.6345 0.5169
vt 0.3800 0.5169
vt 0.3800 0.6851
vt 0.3470 0.6851
vt 0.3470 0.5169
vt 0.5032 0.1723
vt 0.5032 0.3405
vt 0.4702 0.3405
vt 0.4702 0.1723
vt 0.4210 0.1723
vt 0.4210 0.3405
vt 0.3881 0.3405
vt 0.3881 0.1723
vt 0.3800 0.1723
vt 0.3800 0.3405
vt 0.3470 0.3405
vt 0.3470 0.1723
vt 0.5443 0.1723
vt 0.5443 0.3405
vt 0.5113 0.3405
vt 0.5113 0.1723
vt 0.5853 0.1723
vt 0.5853 0.3405
vt 0.5523 0.3405
vt 0.5523 0.1723
vt 0.5853 0.5169
vt 0.5853 0.6851
vt 0.5523 0.6851
vt 0.5523 0.5169
vt 0.7906 0.5169
vt 0.7906 0.6851
vt 0.7577 0.6851
vt 0.7577 0.5169
vt 0.4210 0.5169
vt 0.4210 0.6851
vt 0.3881 0.6851
vt 0.3881 0.5169
vt 0.8728 0.5169
vt 0.8728 0.6851
vt 0.8398 0.6851
vt 0.8398 0.5169
vt 0.7496 0.1723
vt 0.7496 0.3405
vt 0.7166 0.3405
vt 0.7166 0.1723
vt 0.7085 0.5169
vt 0.7085 0.6851
vt 0.6755 0.6851
vt 0.6755 0.5169
vt 0.9549 0.1723
vt 0.9549 0.3405
vt 0.9219 0.3405
vt 0.9219 0.1723
vt 0.9138 0.1723
vt 0.9138 0.3405
vt 0.8809 0.3405
vt 0.8809 0.1723
vt 0.9960 0.1723
vt 0.9960 0.3405
vt 0.9630 0.3405
vt 0.9630 0.1723
vt 0.5032 0.5169
vt 0.5032 0.6851
vt 0.4702 0.6851
vt 0.4702 0.5169
vt 0.5443 0.5169
vt 0.5443 0.6851
vt 0.5113 0.6851
vt 0.5113 0.5169
vt 0.3015 0.6212
vt 0.2782 0.6445
vt 0.2508 0.6628
vt 0.2203 0.6754
vt 0.1880 0.6819
vt 0.1550 0.6819
vt 0.1226 0.6754
vt 0.0922 0.6628
vt 0.0647 0.6445
vt 0.0414 0.6212
vt 0.0231 0.5937
vt 0.0105 0.5633
vt 0.0040 0.5309
vt 0.0040 0.4979
vt 0.0105 0.4656
vt 0.0231 0.4351
vt 0.0414 0.4077
vt 0.0647 0.3844
vt 0.0922 0.3660
vt 0.1226 0.3534
vt 0.1550 0.3470
vt 0.1880 0.3470
vt 0.2203 0.3534
vt 0.2508 0.3660
vt 0.2782 0.3844
vt 0.3015 0.4077
vt 0.3199 0.4351
vt 0.3325 0.4656
vt 0.3389 0.4979
vt 0.3389 0.5309
vt 0.3325 0.5633
vt 0.3199 0.5937
vt 0.9960 0.5169
vt 0.9960 0.6851
vt 0.9630 0.6851
vt 0.9630 0.5169
vt 0.7085 0.1723
vt 0.7085 0.3405
vt 0.6755 0.3405
vt 0.6755 0.1723
vt 0.0647 0.0414
vt 0.0922 0.0231
vt 0.1226 0.0105
vt 0.1550 0.0040
vt 0.1880 0.0040
vt 0.2203 0.0105
vt 0.2508 0.0231
vt 0.2782 0.0414
vt 0.3015 0.0647
vt 0.3199 0.0922
vt 0.3325 0.1226
vt 0.3389 0.1550
vt 0.3389 0.1880
vt 0.3325 0.2203
vt 0.3199 0.2508
vt 0.3015 0.2782
vt 0.2782 0.3015
vt 0.2508 0.3199
vt 0.2203 0.3325
vt 0.1880 0.3389
vt 0.1550 0.3389
vt 0.1226 0.3325
vt 0.0922 0.3199
vt 0.0647 0.3015
vt 0.0414 0.2782
vt 0.0231 0.2508
vt 0.0105 0.2203
vt 0.0040 0.1880
vt 0.0040 0.1550
vt 0.0105 0.1226
vt 0.0231 0.0922
vt 0.0414 0.0647
vt 0.7085 0.0040
vt 0.6755 0.0040
vt 0.9960 0.3486
vt 0.9630 0.3486
vt 0.5443 0.3486
vt 0.5113 0.3486
vt 0.5032 0.3486
vt 0.4702 0.3486
vt 0.9960 0.0040
vt 0.9630 0.0040
vt 0.9138 0.0040
vt 0.8809 0.0040
vt 0.9549 0.0040
vt 0.9219 0.0040
vt 0.7085 0.3486
vt 0.6755 0.3486
vt 0.7496 0.0040
vt 0.7166 0.0040
vt 0.8728 0.3486
vt 0.8398 0.3486
vt 0.4210 0.3486
vt 0.3881 0.3486
vt 0.7906 0.3486
vt 0.7577 0.3486
vt 0.5853 0.3486
vt 0.5523 0.3486
vt 0.5853 0.0040
vt 0.5523 0.0040
vt 0.5443 0.0040
vt 0.5113 0.0040
vt 0.3800 0.0040
vt 0.3470 0.0040
vt 0.4210 0.0040
vt 0.3881 0.0040
vt 0.5032 0.0040
vt 0.4702 0.0040
vt 0.3800 0.3486
vt 0.3470 0.3486
vt 0.6675 0.3486
vt 0.6345 0.3486
vt 0.6264 0.3486
vt 0.5934 0.3486
vt 0.8317 0.0040
vt 0.7987 0.0040
vt 0.7906 0.0040
vt 0.7577 0.0040
vt 0.7496 0.3486
vt 0.7166 0.3486
vt 0.4621 0.0040
vt 0.4291 0.0040
vt 0.6264 0.0040
vt 0.5934 0.0040
vt 0.4621 0.3486
vt 0.4291 0.3486
vt 0.6675 0.0040
vt 0.6345 0.0040
vt 0.8728 0.0040
vt 0.8398 0.0040
vt 0.8317 0.3486
vt 0.7987 0.3486
vt 0.9549 0.3486
vt 0.9219 0.3486
vt 0.9138 0.3486
vt 0.8809 0.3486
vn 0.0851 -0.3428 -0.9356
vn 0.2533 -0.3444 -0.9040
vn 0.4152 -0.3476 -0.8407
vn 0.5655 -0.3518 -0.7459
vn 0.6985 -0.3566 -0.6205
vn 0.8071 -0.3612 -0.4670
vn 0.8846 -0.3648 -0.2905
vn 0.9250 -0.3668 -0.0986
vn 0.9250 -0.3668 0.0986
vn 0.8846 -0.3648 0.2905
vn 0.8071 -0.3612 0.4670
vn 0.6985 -0.3566 0.6205
vn 0.5655 -0.3518 0.7459
vn 0.4152 -0.3476 0.8407
vn 0.2533 -0.3444 0.9040
vn 0.0851 -0.3428 0.9356
vn -0.0851 -0.3428 0.9356
vn -0.2533 -0.3444 0.9040
vn -0.4152 -0.3476 0.8407
vn -0.5655 -0.3518 0.7459
vn -0.6985 -0.3566 0.6205
vn -0.8071 -0.3612 0.4670
vn -0.8846 -0.3648 0.2905
vn -0.9250 -0.3668 0.0986
vn -0.9250 -0.3668 -0.0986
vn -0.8846 -0.3648 -0.2905
vn -0.8071 -0.3612 -0.4670
vn -0.6985 -0.3566 -0.6205
vn -0.5655 -0.3518 -0.7459
vn -0.4152 -0.3476 -0.8407
vn 0.0000 1.0000 0.0000
vn -0.0851 -0.3428 -0.9356
vn -0.2533 -0.3444 -0.9040
vn 0.0000 -1.0000 0.0000
vn -0.2660 0.1692 -0.9490
vn -0.0893 0.1683 -0.9817
vn -0.4363 0.1709 -0.8834
vn -0.5950 0.1732 -0.7848
vn -0.7360 0.1758 -0.6538
vn -0.8517 0.1783 -0.4928
vn -0.9345 0.1803 -0.3068
vn -0.9779 0.1814 -0.1042
vn -0.9779 0.1814 0.1042
vn -0.9345 0.1803 0.3068
vn -0.8517 0.1783 0.4928
vn -0.7360 0.1758 0.6538
vn -0.5950 0.1732 0.7848
vn -0.4363 0.1709 0.8834
vn -0.2660 0.1692 0.9490
vn -0.0893 0.1683 0.9817
vn 0.0893 0.1683 0.9817
vn 0.2660 0.1692 0.9490
vn 0.4363 0.1709 0.8834
vn 0.5950 0.1732 0.7848
vn 0.7360 0.1758 0.6538
vn 0.8517 0.1783 0.4928
vn 0.9345 0.1803 0.3068
vn 0.9779 0.1814 0.1042
vn 0.9779 0.1814 -0.1042
vn 0.9345 0.1803 -0.3068
vn 0.8517 0.1783 -0.4928
vn 0.7360 0.1758 -0.6538
vn 0.5950 0.1732 -0.7848
vn 0.4363 0.1709 -0.8834
vn 0.2660 0.1692 -0.9490
vn 0.0893 0.1683 -0.9817
usemtl torso_bark
s off
f 65/1/1 2/2/1 4/3/1 66/4/1
f 66/5/2 4/6/2 6/7/2 67/8/2
f 67/9/3 6/10/3 8/11/3 68/12/3
f 68/13/4 8/14/4 10/15/4 69/16/4
f 69/17/5 10/18/5 12/19/5 70/20/5
f 70/21/6 12/22/6 14/23/6 71/24/6
f 71/25/7 14/26/7 16/27/7 72/28/7
f 72/29/8 16/30/8 18/31/8 73/32/8
f 73/33/9 18/34/9 20/35/9 74/36/9
f 74/37/10 20/38/10 22/39/10 75/40/10
f 75/41/11 22/42/11 24/43/11 76/44/11
f 76/45/12 24/46/12 26/47/12 77/48/12
f 77/49/13 26/50/13 28/51/13 78/52/13
f 78/53/14 28/54/14 30/55/14 79/56/14
f 79/57/15 30/58/15 32/59/15 80/60/15
f 80/61/16 32/62/16 34/63/16 81/64/16
f 81/65/17 34/66/17 36/67/17 82/68/17
f 82/69/18 36/70/18 38/71/18 83/72/18
f 83/73/19 38/74/19 40/75/19 84/76/19
f 84/77/20 40/78/20 42/79/20 85/80/20
f 85/81/21 42/82/21 44/83/21 86/84/21
f 86/85/22 44/86/22 46/87/22 87/88/22
f 87/89/23 46/90/23 48/91/23 88/92/23
f 88/93/24 48/94/24 50/95/24 89/96/24
f 89/97/25 50/98/25 52/99/25 90/100/25
f 90/101/26 52/102/26 54/103/26 91/104/26
f 91/105/27 54/106/27 56/107/27 92/108/27
f 92/109/28 56/110/28 58/111/28 93/112/28
f 93/113/29 58/114/29 60/115/29 94/116/29
f 94/117/30 60/118/30 62/119/30 95/120/30
f 4/121/31 2/122/31 64/123/31 62/124/31 60/125/31 58/126/31 56/127/31 54/128/31 52/129/31 50/130/31 48/131/31 46/132/31 44/133/31 42/134/31 40/135/31 38/136/31 36/137/31 34/138/31 32/139/31 30/140/31 28/141/31 26/142/31 24/143/31 22/144/31 20/145/31 18/146/31 16/147/31 14/148/31 12/149/31 10/150/31 8/151/31 6/152/31
f 96/153/32 64/154/32 2/155/32 65/156/32
f 95/157/33 62/158/33 64/159/33 96/160/33
f 1/161/34 3/162/34 5/163/34 7/164/34 9/165/34 11/166/34 13/167/34 15/168/34 17/169/34 19/170/34 21/171/34 23/172/34 25/173/34 27/174/34 29/175/34 31/176/34 33/177/34 35/178/34 37/179/34 39/180/34 41/181/34 43/182/34 45/183/34 47/184/34 49/185/34 51/186/34 53/187/34 55/188/34 57/189/34 59/190/34 61/191/34 63/192/34
f 61/193/35 95/157/35 96/160/35 63/194/35
f 63/195/36 96/153/36 65/156/36 1/196/36
f 59/197/37 94/117/37 95/120/37 61/198/37
f 57/199/38 93/113/38 94/116/38 59/200/38
f 55/201/39 92/109/39 93/112/39 57/202/39
f 53/203/40 91/105/40 92/108/40 55/204/40
f 51/205/41 90/101/41 91/104/41 53/206/41
f 49/207/42 89/97/42 90/100/42 51/208/42
f 47/209/43 88/93/43 89/96/43 49/210/43
f 45/211/44 87/89/44 88/92/44 47/212/44
f 43/213/45 86/85/45 87/88/45 45/214/45
f 41/215/46 85/81/46 86/84/46 43/216/46
f 39/217/47 84/77/47 85/80/47 41/218/47
f 37/219/48 83/73/48 84/76/48 39/220/48
f 35/221/49 82/69/49 83/72/49 37/222/49
f 33/223/50 81/65/50 82/68/50 35/224/50
f 31/225/51 80/61/51 81/64/51 33/226/51
f 29/227/52 79/57/52 80/60/52 31/228/52
f 27/229/53 78/53/53 79/56/53 29/230/53
f 25/231/54 77/49/54 78/52/54 27/232/54
f 23/233/55 76/45/55 77/48/55 25/234/55
f 21/235/56 75/41/56 76/44/56 23/236/56
f 19/237/57 74/37/57 75/40/57 21/238/57
f 17/239/58 73/33/58 74/36/58 19/240/58
f 15/241/59 72/29/59 73/32/59 17/242/59
f 13/243/60 71/25/60 72/28/60 15/244/60
f 11/245/61 70/21/61 71/24/61 13/246/61
f 9/247/62 69/17/62 70/20/62 11/248/62
f 7/249/63 68/13/63 69/16/63 9/250/63
f 5/251/64 67/9/64 68/12/64 7/252/64
f 3/253/65 66/5/65 67/8/65 5/254/65
f 1/255/66 65/1/66 66/4/66 3/256/66
